<?xml version="1.0" encoding="UTF-8"?>
<svg width="10px" height="7px" viewBox="0 0 10 7" version="1.1" xmlns="http://www.w3.org/2000/svg" xmlns:xlink="http://www.w3.org/1999/xlink">
    <title>路径</title>
    <g id="页面-1" stroke="none" stroke-width="1" fill="none" fill-rule="evenodd">
        <g id="2-盘点模板-编辑模板" transform="translate(-249.000000, -370.000000)">
            <g id="辅助" transform="translate(0.000000, 60.000000)">
                <rect id="bg" fill="#F4F4F4" x="0" y="0" width="1440" height="920"></rect>
                <rect id="bg备份" fill="#FFFFFF" x="120" y="20" width="1200" height="880"></rect>
            </g>
            <g id="能力项" transform="translate(159.000000, 240.000000)">
                <rect id="矩形" stroke="#CCCCCC" fill="#FFFFFF" x="0" y="0" width="540" height="680"></rect>
                <g id="能力1" transform="translate(89.000000, 125.000000)" fill="#000000">
                    <path d="M2.17422064,5 L9.82577936,5 C10.3780641,5 10.8257794,5.44771525 10.8257794,6 C10.8257794,6.23871127 10.7403872,6.46954826 10.585036,6.65079137 L6.7592566,11.1142006 C6.39983445,11.5335265 5.76853447,11.582088 5.34920863,11.2226659 C5.31032982,11.1893412 5.27406809,11.1530794 5.2407434,11.1142006 L1.41496403,6.65079137 C1.05554188,6.23146553 1.10410342,5.60016555 1.52342926,5.2407434 C1.70467237,5.08539216 1.93550936,5 2.17422064,5 Z" id="路径"></path>
                </g>
            </g>
        </g>
    </g>
</svg>