<?xml version="1.0" encoding="UTF-8"?>
<svg width="10px" height="10px" viewBox="0 0 10 10" version="1.1" xmlns="http://www.w3.org/2000/svg" xmlns:xlink="http://www.w3.org/1999/xlink">
    <title>Fill 1</title>
    <g id="页面-1" stroke="none" stroke-width="1" fill="none" fill-rule="evenodd">
        <g id="2-盘点模板-编辑模板" transform="translate(-348.000000, -403.000000)">
            <g id="辅助" transform="translate(0.000000, 60.000000)">
                <rect id="bg" fill="#F4F4F4" x="0" y="0" width="1440" height="920"></rect>
                <rect id="bg备份" fill="#FFFFFF" x="120" y="20" width="1200" height="880"></rect>
            </g>
            <g id="能力项" transform="translate(159.000000, 240.000000)">
                <rect id="矩形" stroke="#CCCCCC" fill="#FFFFFF" x="0" y="0" width="540" height="680"></rect>
                <g id="能力1" transform="translate(89.000000, 125.000000)"></g>
                <path d="M198.749376,165.647329 L196.352209,163.25087 C196.192209,163.085206 195.967785,162.994587 195.738404,163.00025 C195.508316,163.000958 195.288847,163.092994 195.126723,163.255826 L189.266903,169.114938 C189.074336,169.30892 188.983717,169.582194 189.023363,169.851221 C189.010619,169.888035 189.002124,169.926265 189,169.963787 L189,172.137238 C189,172.614405 189.387256,173.000246 189.864424,173.000246 L192.037875,173.000246 C192.075397,172.998122 192.112919,172.990334 192.148317,172.977591 C192.187963,172.984671 192.229733,172.988919 192.270087,172.988919 C192.501591,172.988919 192.722476,172.896883 192.886724,172.733343 L198.74442,166.873523 C199.083535,166.536532 199.085659,165.98786 198.74796,165.648037 L198.749376,165.647329 Z M189.867964,172.135114 L189.867964,170.94361 L191.056636,172.13299 L189.867964,172.13299 L189.867964,172.135114 Z M192.274335,172.12237 L189.877876,169.725911 L189.880708,169.725911 L194.221237,165.381842 L196.61628,167.776885 L192.274335,172.12237 Z M197.228669,167.163788 L194.834334,164.768745 L195.736988,163.866091 L198.130615,166.261134 L197.228669,167.163788 Z" id="Fill-1" fill="#E1452D"></path>
            </g>
        </g>
    </g>
</svg>